<svg width="18" height="20" viewBox="0 0 18 20" fill="none" xmlns="http://www.w3.org/2000/svg">
<path d="M11 18C11 18.5304 10.7893 19.0391 10.4142 19.4142C10.0391 19.7893 9.53043 20 9 20C8.46957 20 7.96086 19.7893 7.58579 19.4142C7.21071 19.0391 7 18.5304 7 18H11ZM9 0C9.26522 0 9.51957 0.105357 9.70711 0.292893C9.89464 0.48043 10 0.734784 10 1V2.08C12.84 2.56 15 5.03 15 8V14L18 17H0L3 14V8C3 5.03 5.16 2.56 8 2.08V1C8 0.734784 8.10536 0.48043 8.29289 0.292893C8.48043 0.105357 8.73478 0 9 0Z" fill="white"/>
</svg>
